<svg width="24px" height="24px" xmlns="http://www.w3.org/2000/svg" xmlns:xlink="http://www.w3.org/1999/xlink" version="1.1">
  <defs id="ui-icons">
    <svg id="facebook-icon" viewBox="0 0 24 24" width="24px" height="24px" x="0" y="0" preserveAspectRatio="xMinYMin meet" class="artdeco-icon">
      <g class="color-icon">
        <g>
          <rect x="3" y="3" style="fill:#FFFFFF;" width="18" height="18"></rect>
          <g>
            <rect style="fill:none;" width="24" height="24"></rect>
            <path style="fill:#425597;" d="M20,2H4C2.9,2,2,2.9,2,4v16c0,1.1,0.9,2,2,2h16c1.1,0,2-0.9,2-2V4C22,2.9,21.1,2,20,2zM19.3,10l-0.6,3H16v6h-3v-6h-2v-3h2V8.5C13,6.4,13.6,5,16.6,5H19v3h-2.3C16.3,8,16,8.2,16,8.7V10H19.3z"></path>
          </g>
        </g>
      </g>
    </svg>
  </defs>
  <style>
  #svg-source use[data-size="large"]{      fill-opacity: 1;      fill: transparent;    }    #svg-source use{      fill-opacity: 0;      fill: currentColor;    }  </style>

  <use x="0" y="0" data-size="large" xlink:href="#facebook-icon" style="color: #FFFFFF;" width="24px" height="24px"/>

</svg>
